<svg width="36" height="36" viewBox="0 0 36 36" fill="none" xmlns="http://www.w3.org/2000/svg">
<path d="M18 3C9.72 3 3 9.72 3 18C3 26.28 9.72 33 18 33C26.295 33 33 26.28 33 18C33 9.72 26.295 3 18 3ZM11.415 28.02C12.015 24.66 14.415 22.215 18 22.215C21.585 22.215 23.985 24.675 24.585 28.035C22.695 29.265 20.43 30 18 30C15.57 30 13.305 29.265 11.415 28.02ZM18 16.515C16.755 16.515 15.75 15.51 15.75 14.265C15.75 13.02 16.755 12.015 18 12.015C19.245 12.015 20.25 13.02 20.25 14.265C20.25 15.51 19.245 16.515 18 16.515ZM27.09 25.83C25.98 22.62 23.505 20.025 19.83 19.38V19.17C21.825 18.42 23.25 16.515 23.25 14.265C23.25 11.37 20.895 9.015 18 9.015C15.105 9.015 12.75 11.37 12.75 14.265C12.75 16.515 14.175 18.42 16.17 19.17V19.38C12.495 20.025 10.02 22.62 8.91 25.83C7.095 23.73 6 21 6 18C6 11.37 11.37 6 18 6C24.63 6 30 11.37 30 18C30 21 28.905 23.73 27.09 25.83Z" fill="#88999C"/>
</svg>
